<?xml version="1.0" encoding="UTF-8"?>
<svg width="200px" height="200px" viewBox="0 0 200 200" version="1.1" xmlns="http://www.w3.org/2000/svg" xmlns:xlink="http://www.w3.org/1999/xlink">
    <title>Ninja Mascot - Happy</title>
    <defs>
        <linearGradient x1="0%" y1="0%" x2="100%" y2="100%" id="ninjaGradient">
            <stop stop-color="#4A148C" offset="0%"></stop>
            <stop stop-color="#311B92" offset="100%"></stop>
        </linearGradient>
    </defs>
    <g id="ninja-happy" stroke="none" stroke-width="1" fill="none" fill-rule="evenodd">
        <!-- Head -->
        <circle id="head" fill="url(#ninjaGradient)" cx="100" cy="100" r="80"></circle>
        
        <!-- Mask -->
        <path d="M50,80 C50,60 70,50 100,50 C130,50 150,60 150,80 L150,120 C150,140 130,150 100,150 C70,150 50,140 50,120 L50,80 Z" id="mask" fill="#1A1A2E"></path>
        
        <!-- Eyes - Happy -->
        <path d="M75,90 C75,85 80,80 85,80 C90,80 95,85 95,90 C95,95 90,100 85,100 C80,100 75,95 75,90 Z" id="left-eye" fill="white"></path>
        <path d="M105,90 C105,85 110,80 115,80 C120,80 125,85 125,90 C125,95 120,100 115,100 C110,100 105,95 105,90 Z" id="right-eye" fill="white"></path>
        
        <!-- Eye Pupils - Happy -->
        <circle id="left-pupil" fill="#000000" cx="85" cy="90" r="5"></circle>
        <circle id="right-pupil" fill="#000000" cx="115" cy="90" r="5"></circle>
        
        <!-- Smile -->
        <path d="M75,110 C75,125 115,135 125,110" id="smile" stroke="#FFFFFF" stroke-width="3" stroke-linecap="round"></path>
        
        <!-- Headband -->
        <path d="M40,70 C40,40 70,30 100,30 C130,30 160,40 160,70" id="headband" stroke="#FF5722" stroke-width="10" stroke-linecap="round"></path>
        <circle id="headband-knot" fill="#FF5722" cx="160" cy="70" r="10"></circle>
    </g>
</svg> 