<?xml version="1.0" encoding="UTF-8"?>
<svg width="100px" height="100px" viewBox="0 0 100 100" version="1.1" xmlns="http://www.w3.org/2000/svg" xmlns:xlink="http://www.w3.org/1999/xlink">
    <title>Browser Logo</title>
    <defs>
        <linearGradient x1="0%" y1="0%" x2="100%" y2="100%" id="browserGradient">
            <stop stop-color="#4299E1" offset="0%"></stop>
            <stop stop-color="#3182CE" offset="100%"></stop>
        </linearGradient>
    </defs>
    <g id="browser-logo" stroke="none" stroke-width="1" fill="none" fill-rule="evenodd">
        <!-- Browser Window -->
        <rect id="browser-bg" fill="#FFFFFF" x="5" y="5" width="90" height="90" rx="6"></rect>
        
        <!-- Browser Header -->
        <rect id="header" fill="url(#browserGradient)" x="5" y="5" width="90" height="20" rx="6 6 0 0"></rect>
        
        <!-- Window Controls -->
        <circle id="close-btn" fill="#FF5F56" cx="15" cy="15" r="4"></circle>
        <circle id="minimize-btn" fill="#FFBD2E" cx="30" cy="15" r="4"></circle>
        <circle id="maximize-btn" fill="#27C93F" cx="45" cy="15" r="4"></circle>
        
        <!-- Address Bar -->
        <rect id="address-bar" fill="#EDF2F7" x="15" y="30" width="70" height="10" rx="5"></rect>
        <circle id="secure-icon" fill="#38A169" cx="20" cy="35" r="2"></circle>
        <text id="url" font-family="Arial, sans-serif" font-size="6" font-weight="400" fill="#4A5568">
            <tspan x="25" y="37">keyboarddojo.com</tspan>
        </text>
        
        <!-- Content Area -->
        <rect id="content-area" fill="#F7FAFC" x="15" y="45" width="70" height="40" rx="2"></rect>
        
        <!-- Navigation -->
        <rect id="nav-item-1" fill="#3182CE" x="20" y="50" width="15" height="5" rx="2"></rect>
        <rect id="nav-item-2" fill="#CBD5E0" x="40" y="50" width="15" height="5" rx="2"></rect>
        <rect id="nav-item-3" fill="#CBD5E0" x="60" y="50" width="15" height="5" rx="2"></rect>
        
        <!-- Content -->
        <rect id="content-block-1" fill="#E2E8F0" x="20" y="60" width="60" height="5" rx="2"></rect>
        <rect id="content-block-2" fill="#E2E8F0" x="20" y="70" width="40" height="5" rx="2"></rect>
        <rect id="content-block-3" fill="#E2E8F0" x="20" y="80" width="20" height="5" rx="2"></rect>
    </g>
</svg> 