<?xml version="1.0" encoding="UTF-8"?>
<svg width="100px" height="100px" viewBox="0 0 100 100" version="1.1" xmlns="http://www.w3.org/2000/svg" xmlns:xlink="http://www.w3.org/1999/xlink">
    <title>Cut/Paste Icon</title>
    <defs>
        <linearGradient x1="0%" y1="0%" x2="100%" y2="100%" id="scissorsGradient">
            <stop stop-color="#4A148C" offset="0%"></stop>
            <stop stop-color="#7B1FA2" offset="100%"></stop>
        </linearGradient>
    </defs>
    <g id="cut-paste-icon" stroke="none" stroke-width="1" fill="none" fill-rule="evenodd">
        <!-- Scissors -->
        <path d="M30,70 C30,75.5 25.5,80 20,80 C14.5,80 10,75.5 10,70 C10,64.5 14.5,60 20,60 C25.5,60 30,64.5 30,70 Z" id="lower-handle" fill="url(#scissorsGradient)"></path>
        <path d="M30,30 C30,35.5 25.5,40 20,40 C14.5,40 10,35.5 10,30 C10,24.5 14.5,20 20,20 C25.5,20 30,24.5 30,30 Z" id="upper-handle" fill="url(#scissorsGradient)"></path>
        <path d="M20,40 L50,50 L20,60" id="lower-blade" stroke="url(#scissorsGradient)" stroke-width="5" stroke-linecap="round"></path>
        <path d="M20,40 L50,30 L60,20" id="upper-blade" stroke="url(#scissorsGradient)" stroke-width="5" stroke-linecap="round"></path>
        
        <!-- Paper -->
        <rect id="paper" fill="#E1F5FE" x="55" y="30" width="30" height="40" rx="2"></rect>
        <path d="M60,40 L80,40 M60,50 L80,50 M60,60 L70,60" id="paper-lines" stroke="#B3E5FC" stroke-width="2" stroke-linecap="round"></path>
        
        <!-- Dotted Line -->
        <path d="M45,50 L55,50" id="dotted-line" stroke="#FF5722" stroke-width="2" stroke-linecap="round" stroke-dasharray="2,2"></path>
    </g>
</svg> 