<?xml version="1.0" encoding="UTF-8"?>
<svg width="100px" height="100px" viewBox="0 0 100 100" version="1.1" xmlns="http://www.w3.org/2000/svg" xmlns:xlink="http://www.w3.org/1999/xlink">
    <title>Search and Replace Icon</title>
    <defs>
        <linearGradient x1="0%" y1="0%" x2="100%" y2="100%" id="searchGradient">
            <stop stop-color="#4A148C" offset="0%"></stop>
            <stop stop-color="#7B1FA2" offset="100%"></stop>
        </linearGradient>
        <linearGradient x1="0%" y1="0%" x2="100%" y2="100%" id="replaceGradient">
            <stop stop-color="#1A237E" offset="0%"></stop>
            <stop stop-color="#3949AB" offset="100%"></stop>
        </linearGradient>
    </defs>
    <g id="search-replace-icon" stroke="none" stroke-width="1" fill="none" fill-rule="evenodd">
        <!-- Magnifying Glass -->
        <circle id="search-circle" stroke="url(#searchGradient)" stroke-width="5" cx="40" cy="40" r="20"></circle>
        <line id="search-handle" stroke="url(#searchGradient)" stroke-width="5" stroke-linecap="round" x1="55" y1="55" x2="70" y2="70"></line>
        
        <!-- Replace Arrow -->
        <path d="M70,30 C70,30 80,30 80,40 C80,50 70,50 70,50 L60,50" id="replace-arrow" stroke="url(#replaceGradient)" stroke-width="5" stroke-linecap="round"></path>
        <path d="M60,40 L50,50 L60,60" id="replace-arrowhead" stroke="url(#replaceGradient)" stroke-width="5" stroke-linecap="round" stroke-linejoin="round"></path>
        
        <!-- Find Text Box -->
        <rect id="find-box" fill="#E8EAF6" x="20" y="30" width="30" height="20" rx="2"></rect>
        <path d="M25,40 L45,40" id="find-text-line" stroke="#9FA8DA" stroke-width="2" stroke-linecap="round"></path>
        
        <!-- Replace Text Box -->
        <rect id="replace-box" fill="#E8EAF6" x="20" y="70" width="30" height="20" rx="2"></rect>
        <path d="M25,80 L45,80" id="replace-text-line" stroke="#9FA8DA" stroke-width="2" stroke-linecap="round"></path>
        
        <!-- Connecting Line -->
        <line id="connecting-line" stroke="#FF5722" stroke-width="2" stroke-dasharray="4,2" stroke-linecap="round" x1="40" y1="50" x2="40" y2="70"></line>
    </g>
</svg> 